<svg xmlns="http://www.w3.org/2000/svg" width="541.98" height="450.7" viewBox="0 0 541.98 450.7"><title>map</title><g style="opacity:0.9"><g style="opacity:0.25"><path d="M457.8,122.89l-2.88,5.77-.93,4.1-.28,3.44.17,2,.32,1.3.16.28.13.22.12.13.15.06,7.6,0h0l1.83,37.28-.38,2.13-.58,1-.91,1-4.43,4-.92.53-.84.24h-2.53l-1.54.19-.76.19-.71.32-.46.32-1.87,1.6-.19.06-.49.06-2-.25-1.08-1.24-.88-1.53L442.18,185l-.9-.14-.66.27-.63.35-.85.16-.68-.28-.67-.55-.76-.43-.92,0,.26.35,0,.16-.43.23-3,.35-.57-.12-.37,0-.33.17L431,186l-.43.14-4.86-1.08-.79.13-1.28,1.12,0,.17.12.27-.33.3-.68.13-.62.3-.2.32-.07.35v.76l0,.2-.22.3,0,.26.09.14.4.28.08.16-.09.54-.4.86-.08.33.14.54.32.42.32.33.32.51.41.24.6.25-.07.59-.32.23-.41.13-.4.31-.35.5-.17.41-.08.46,0,.63.14.24.6.44.15.23-.11.89-.37.63-.55.44-.77.36-1.35.23-.19.21-.08.38-.22.46-.27.43L416.38,205l-.57.78-.22.44-.2,1-.21.3-.22.24-.24.49-.58.63-.17.49,1.13,3,.38.72.77.46.18.38.13.41.16.27.32.14,1.21.12,1,.45.58.09.28-.38.23-.11,1.45-.32.38.06,1.28.52,1.46.22.38.11.68.6.71.82.8.71,2.48.63.57,0,1.11-.71.39-.21,1.95-.39,1.16,0,.76.28.41.31.82.22.44.22.44.42.62.81.46.35,1,.27,2.91-.27.47.12,1.21.79,1.41.41.43.21.6.68,1.42,2,2.26,1.67.44.11.92.11.47.11,1.35.79,5.54,5.66.77,1.23.31,1.5,0,4.19.12.24.28.12L463,241l1.22,1.52.87.63L466,243l.74-.35.62.36.41.79.22.92v1.89l.11,1,.35.44.35.12.28.25.44.59,1.83,1.34.2.27.24.78.3.2.32.14.14.16,6.34,1.52,2.87,2,.4.58.3.68.19.79.06.87-.1.12-.41.3-.11.05,0,.27.21.46.06.19.3,1.83.52.42.79.17h1.91l1,.12.76.3,3,2,.28.49.22.82.54.61.3.19.46,1.83.46,1.8,1,2.56.36,2.58.38.91,1.79,3,.28,1.15,0,2.64.22.9,1.58,2.72.85,2.2.75.85.84.77.77.95.35.87.47,2.91-.47.95-.16.51,0,.51.22.48.73.8.14.5-.1.64-.14.5-.08.49.08.6.44,1,3.62,5.12.63,1.18.4,2.61.48.86,2,1.47,3.58,2.08,1.73,1.39.33.89-2.48,2.43L511,322.84l-2.48,2.43-2.5,2.43-2.48,2.44-2.48,2.43L498.61,335l-2.49,2.43-2.48,2.43-2.48,2.44-2.48,2.42-2.5,2.44-2.48,2.43L481.21,352l-2.48,2.44-2.5,2.43-4.52,4.46-4.52,4.47-4.52,4.45-4.52,4.47h0l-3.63,3.62L450.84,382l-5,5-4.29,4.29-3.28,3.28-1.88,1.1-1.94.23-7.19-.36-4.08-.19-1.39-.27-.93-.49-5.66-4.6-.9-.38-.8.28-2.72,2-3.51,1.79-3.76,1.12-7,.57-8.22.66-2,.46-8.23,5-.54.62,0,.57.19,1.6v.7l-.21.9-.3.4-.54,0-2.81-.57-.76-.37-.68-.72-.87-1.37L371,403l-3.87-.23-.62-.32-.3-.76-.14-2-.17-.85-.63-1.07-3.2-3.54-1.06-.89-1.17-.54-.12,0-.11.25-3.55,4-.42.38-.82.35-4.64.68-.79.4-.52.65-.52.46-.82-.16-5.72-3.1-3.7-2-1.75-.55-1.83-.26H332.4l-1.17.32-2.86,2.24-.4.16-.86.17-.42.16-1.38,1.09-.6.28-.46.07-.88,0-.48.16-.49.44-.24.49-.12.51-.21.52-3,4.28-1,1.93-.19.7-.54-.93h0l.44-2.29-.65-.79-1.39-.56-.58-.44-.31-.66-.14-1.54-.07-.22-.1-.21-.82-.6-.7.51-.74.88-.95.52h-1.26l-.53.07-.77.28-1.4.79-.55.14-.88.1h-.47l-.4-.15-.46-.38,0-.22.27-.28.24-.54.33-1.74,0-.87-1.08-6.54L304,391l-.32-.58-.42-.14-.46,0-.45.11-.42.08-.9,0-.4-.07-1.7-.54-1.8-1.07-1.82-1.07-3-1-2.91,0-.74-.25-.33-.41-.06-.46v-.48l-.12-.49-.28-.49-1.09-1.26-.4-1-.25-1-.46-.89-1-.55-1.88-.38-.66-.42-.66-1-1-2-.68-.82-1.06-.62-.52-.1h-.52l-.47-.11-.35-.41,0-.56.27-.47.34-.44.14-.44-.44-.9-1-.92-1.15-.67-1-.14h-2.06l-1.2-1-.52-1.64,0-1.94.39-1.35.07-.46-.07-.39-.31-.75,0-.39.27-.45.42-.5.16-.48-.54-.33-.46-.19-1-.62-.28-.12-1,.26-.35-.07-.65-.38-1.29-1.15-.52-.36-1.86-.87-.52-.09-1.35,0-1.36-.58-.17,0-.33-.09-.28,0-.7.35-.22-.14-.46-.46-.17-.11-1-.17-.67.11-.37.56-.11,1.56-.14.77h0l0,.46-.08.49-.84.77-.3.48-.29,1-.36.9-.57.8-2.29,2-.44.65-.46,1.07-.67,1.06-.74.16-.89-.19-1.1,0-.51.54-.12.83-.33.71-1.12.16-1-.48-2.86-2.87-.51-.36L238,365l-.12,0-.12-.63-.49-.2-2.17-1.44-.17-.19-.17-.19-2.72.68-1,.09-2.11-.17-1.38.19h-.46l-1.14-.46-.22-.87-.06-1L225,360l-.3-.1-.32-.1-.38.23-.4.36-.6.31h-.91l-.4.06-1.86,3.56-.66.92-.68.44-1.85.42-.52.35L216,367l-.11.51-.32.39-.41.12-.42,0-.45-.08-.42,0-1,.24-.65.46-1.72,2.25-.83.79-1,.59-1,.11-1.07-.33-.38-.42-.14-.63-.39-1-1.52-1.09-1.88.08-2,.38-1.75-.23-.86-.6-.82-.84-1.25-1.57-.19-.87-.28-.36-.37,0-.36,0L194,365l-.74.77-.45,0-1.37-1.94-.22-.43-.14-.34-.06-.38,0-.47h0l.14-1,.22-.76h0l-.15-.49-2.3-.33-.49.06-.32-.06-.44-.49-.24-.08-.4.22-.19.13.08.06,0,.11,0,.22-.11.19h-.27l-.76-.32-.26,0-1.28.19-.35,0-.51-.3-.82-.87-.46-.38-.35-.11-.44-.09-.65-.14h-.2l-.32-.73-.2-1.06-.1-1.84h0l.37-2.61-.16-1-.17-.41-.3-.51-.38-.46-.41-.24-.41,0-.87.24h-.33l-.58-.46-.29-.74-.35-1.85-.58-1.06-.79-.5-3.95-.43-.36-.13-.54-.19-.81-.66-.25-.44-.17-1-.17-.41-.38-.44-1.4-1.06-.3-.13-.3-.17-.27-.19-.25-.24h0l.3-2-.08-.58-.46-.57-.65-.47-.65-.47-.73-1.75-1.22-1-2.56-1.72-.92-1.13-.74-1.32-1.19-2.81-.19-.68-.23-2.2-.36-1.14-.1-.55.1-.69,1.82-4.89-.1-.42.11-.79-.18-.38-.43-.3-.33,0-.23.15-.16.06-.17,0-.21.11-.23,0-.27-.43,0-.3.2-.65.07-.78.11-.28h0l0-.26-.77-.52-.22-.19-.1-.27,0-.39-.14-.7-.37-.7-.53-.58-.63-.32-.9-.28-.22-.33,0-.49-.32-.74-.42-.29-1.88-.71-.41,0-.81.27-.42,0-.28-.21-.35-.67-.82-.65-.53-1.27-.49-.5L143,302l-.93,0-.57-.77-.43-1-.55-.11-.75.27-1,.08-1-.47-.36-.81-.25-2-.47-.59-.81-.5-3.19-1.25-3.17.14-1.44-.18-2.63-.91-.7-.55-.44-.81-.36-1-.49-.76-.81-.24-1.8,1.25-.71.21-.08-.47-.07-.48h0l.36-.87.72-.76.88-.63.4-.23.41-.23.74-.61.21-.41.22-.41h0l0-.85-.58-.71-.73-.18-.65,0-.43-.27,0-1.08-.14-1.16-.71-.5-1.87-.4-.27-.19-.57-.36-1.07-1.4-.74-.73-.87-.49-.68-.29-.49-.43-.3-.91h0l.1-.81.25-.84-.06-.67-.85-.28h0l.3-.52.42-.3.44-.24.4-.33.86-1.8.71-.94.71-1,.73-1.36.35-.44h0L118,266l-2.15-1.23-2.65-1-1.53-.79-.76-.79L109.09,261l-1.39-1.74-.71-.32-.81-.22-1-.62-.46-.54-.16-.48-.07-.51-.19-.57,0-.28.09-.26,0-.26-.18-.17h-.27l-.28.08-.28,0-.24-.13-.42-1-.16-2.33-.27-1-2-.18-.52-.14-.12-.28,0-.33-.25-.32-.46-.19-.91-.13-.44-.12-1.42-.79-.21-.42-.09-.84-.19-.36-.76-.35-2-.19-.68-.22-.39-.73,0-.6-.24-.37-1.12,0-.49-.12-.71-.71-.45-.18h-.87l-.36-.1-1.07-.86-.84-.34L82.84,241l-.71-.38-2-1.83-.67-.41-.74-.13-.85.28L76.69,238,75,236.71l-2.51-1.23-.6-.43-.47-.67-.25-.65-.29-1.28-.34-.65-.3-.22-.74-.22-.35-.21-.27-.3-.42-.71-.29-.31-.6-.41L64.84,228l-.95-2.24-.21-.73,0-.57.95-.91,3-1,1-.87.21-.79-.14-.67-.26-.61-.17-.68.17-1.93,0-.65-.25-.76-.66-1.2L67,213l-.43-.7-.59-.57-1.12-.36-.28-.25-.22-.27-.32-.2L63,210.47h-.63l-1.39.32-.62,0-1.36-.5-1.34-1-2.15-2.4-.38-.23-.36-.25-.3-.28-.23-.33-.1-.81-.91-1-.1-1.6-.44-.71-3.84-3.54-1.44-.65-2.59-.3-1.42-.79-.9-.1-.87,0-2.52-.46-3.14.49-1.42,0-1.41-.87-.44-.12-.32-.18-.25-.29-.17-.41-1.06-1-1.55.16-2.89,1-.24-.13-.74-.59-.33-.17-.32-.06h-.65l-1.07-.11-1.55-.36-.71-.27-1.2-.65-1.2-.92-1-1.12L17,188.93l.16-1.47.54-1.53,2.52-4.2.44-.49,1.81-1.2.3-.43-.22-.55-1.21-1-.32-.63.17-.65.82-1.18.1-.65-.8-.43-1.66,0-.46.06.21-.28.09-.65.27-.36,2.58-2,1.36-.63,4.89-3.08,1-.22,4.06-.43,2.2-.72.45-.26.25-.3V161l0-.3.27-.68,4.06-6.86.17-.44.05-.24.85-8.59.32-.82.35-.52L44,141.35l2.75-3.08.32-1,.09-.54-.08-12,.16-.93.16-.29.18-.17.16,0,.43,0,.49-.08L49,123l.4-.22,1.53-1.28,1.55-.93.59-.66,1.23-1.66.6-.63.38-.51.4-.82.25-.79L57.08,113l.49-1.33,0-.25,0-.28,0-.26-.13-.47-.38-.85-.07-.22-.09-.49,0-.38.12-.49,2.24-4.82.44-.55.31-.28.28-.11.7-.21.66-.27.47-.09,1.14.09.52-.07,1.07-.43h.27l.52.06.3,0,.4-.16.31-.08.32,0,.54.09.23.08.46.2.26.08.25.05h.28l.24-.07.42-.16.25,0,.49.06h.25l.25,0,.82-.38.24-.08.52-.06h.28l.54,0,.46-.15.42-.2.66-.22.5-.09.54,0,1.8.06.51-.1.57-.16.14,0,3.3-1.17,1.93-.48.26,0,1.44,0,1-.17.72-.19.25,0,1.8.08.36,0,.4-.11.93-.46,2-.52.49,0,.16.12L96,99.14l.24.38.08.21.06.25.27,7,.08.25.13.19.28.33.35.28,1.61.95.68.3,1.21.34.13.07.29.22.16.16.27.34,2.68,4.39.52.66.65.68,3.45,1.31L126,137.24l2,1.28,1.11.51,2.59.22.47,0,17.29-5.87,11.58-.27,2.05.36,6.4,0,3.64.46.25,0,.93-.25.26,0,5.73.84,4.43-.22.73-.14.47-.17,4.56,9.5,2.15,2.4,35.76.32-.55-1.12-.19-1.59.06-1.93.92-1.72,2.89-2.87,3.39-2.6.9-.73,5.5-2.91,5.37-2L257,126.36l3.78-3.59,2.09-3.31.06-6.49,1.37-1.06,2.47-1.5,11.93-5.8,2-1.23,21.11,13.49,11.85,10.65.71.52.62.21.63-.38.52-.49.87-.32.57-.14,5.08-.14,9.59-.52L335.4,125l19.25-19.06,4.89-6.08,1.25-1.23,2.79-4.35,2.94-7.44.58-.85,21.1-17.89.74-1.42.21-1.12-3.2-6-.67-3.07-.15-4.72.63-7.33-.22-4.65-.08-.54-.22-.71-.12-.27L373.35,25l29.74-.13.07-1.11,0-.57-.08-.54-.57-1.58-.33-2.1,0-.6,0-.57.17-1.09v-.59l0-.28-.07-.27,0-.24.12-.19,21.38.27-.29,3.74-2.59,8.79,0,5.28-.62,6-.14.49L419.61,41l-.51.74-.59.71-.16.27-.2.45,0,.66,4.44,33.62-.17.84-.16.55L421.06,81l-.3.7-.06.52.47.36L431,86.18l.47.22.38.3L435.42,91l19.38,15.91.68.79,2,5,.24.75.06,1.2,0,.93-.51,3,.17,1.34.33.91.27,1v.32l0,.27-.14.47" transform="translate(-5 -3.14)"/></g><path d="M445.8,110.89l-2.88,5.77-.93,4.1-.28,3.44.17,2,.32,1.3.16.28.13.22.12.13.15.06,7.6,0h0l1.83,37.28-.38,2.13-.58,1-.91,1-4.43,4-.92.53-.84.24h-2.53l-1.54.19-.76.19-.71.32-.46.32-1.87,1.6-.19.06-.49.06-2-.25-1.08-1.24-.88-1.53L430.18,173l-.9-.14-.66.27-.63.35-.85.16-.68-.28-.67-.55-.76-.43-.92,0,.26.35,0,.16-.43.23-3,.35-.57-.12-.37,0-.33.17L419,174l-.43.14-4.86-1.08-.8.13-1.28,1.12,0,.17.12.27-.33.3-.68.13-.62.3-.2.32-.07.35v.76l0,.2-.22.3,0,.26.09.14.4.28.08.16-.09.54-.4.86-.08.33.14.54.32.42.32.33.32.51.41.24.6.25-.07.59-.32.23-.41.13-.4.31-.35.5-.17.41-.08.46,0,.63.14.24.6.44.15.23-.11.89-.37.63-.55.44-.77.36-1.35.23-.19.21-.08.38-.22.46-.27.43L404.38,193l-.57.78-.22.44-.2,1-.21.3-.22.24-.24.49-.58.63-.17.49,1.13,3,.38.72.77.46.18.38.13.41.16.27.32.14,1.21.12,1,.45.58.09.28-.38.23-.11,1.45-.32.38.06,1.28.52,1.46.22.38.11.68.6.71.82.8.71,2.48.63.57,0,1.11-.71.39-.21,1.95-.39,1.16,0,.76.28.41.31.82.22.44.22.44.42.62.81.46.35,1,.27,2.91-.27.47.12,1.21.79,1.41.41.43.21.6.68,1.42,2,2.26,1.67.44.11.92.11.47.11,1.35.79,5.54,5.66.77,1.23.31,1.5,0,4.19.12.24.28.12L451,229l1.22,1.52.87.63L454,231l.74-.35.62.36.41.79.22.92v1.89l.11,1,.35.44.35.12.28.25.44.59,1.83,1.34.2.27.24.78.3.2.32.14.14.16,6.34,1.52,2.87,2,.4.58.3.68.19.79.06.87-.1.12-.41.3-.11.05,0,.27.21.46.06.19.3,1.83.52.42.79.17h1.91l1,.12.76.3,3,2,.28.49.22.82.54.61.3.19.46,1.83.46,1.8,1,2.56.36,2.58.38.91,1.79,3,.28,1.15,0,2.64.22.9,1.58,2.72.85,2.2.75.85.84.77.77.95.35.87.47,2.91-.47.95-.16.51,0,.51.22.48.73.8.14.5-.1.64-.14.5-.08.49.08.6.44,1,3.62,5.12.63,1.18.4,2.61.48.86,2,1.47,3.58,2.08,1.73,1.39.33.89-2.48,2.43L499,310.84l-2.48,2.43-2.5,2.43-2.48,2.44-2.48,2.43L486.61,323l-2.49,2.43-2.48,2.43-2.48,2.44-2.48,2.42-2.5,2.44-2.48,2.43L469.21,340l-2.48,2.44-2.5,2.43-4.52,4.46-4.52,4.47-4.52,4.45-4.52,4.47h0l-3.63,3.62L438.84,370l-5,5-4.29,4.29-3.28,3.28-1.88,1.1-1.94.23-7.19-.36-4.08-.19-1.39-.27-.93-.49-5.66-4.6-.9-.38-.8.28-2.72,2-3.51,1.79-3.76,1.12-7,.57-8.22.66-2,.46-8.23,5-.54.62,0,.57.19,1.6v.7l-.21.9-.3.4-.54,0-2.81-.57-.76-.37-.68-.72-.87-1.37L359,391l-3.87-.23-.62-.32-.3-.76-.14-2-.17-.85-.63-1.07-3.2-3.54-1.06-.89-1.17-.54-.12,0-.11.25-3.55,4-.42.38-.82.35-4.64.68-.79.4-.52.65-.52.46-.82-.16-5.72-3.1-3.7-2-1.75-.55-1.83-.26H320.4l-1.17.32-2.86,2.24-.4.16-.86.17-.42.16-1.38,1.09-.6.28-.46.07-.88,0-.48.16-.49.44-.24.49-.12.51-.21.52-3,4.28-1,1.93-.19.7-.54-.93h0l.44-2.29-.65-.79-1.39-.56-.58-.44-.31-.66-.14-1.54-.07-.22-.1-.21-.82-.6-.7.51-.74.88-.95.52h-1.26l-.53.07-.77.28-1.4.79-.55.14-.88.1h-.47l-.4-.15-.46-.38,0-.22.27-.28.24-.54.33-1.74,0-.87-1.08-6.54L292,379l-.32-.58-.42-.14-.46,0-.45.11-.42.08-.9,0-.4-.07-1.7-.54-1.8-1.07-1.82-1.07-3-1-2.91,0-.74-.25-.33-.41-.06-.46v-.48l-.12-.49-.28-.49-1.09-1.26-.4-1-.25-1-.46-.89-1-.55-1.88-.38-.66-.42-.66-1-1-2-.68-.82-1.06-.62-.52-.1h-.52l-.47-.11-.35-.41,0-.56.27-.47.34-.44.14-.44-.44-.9-1-.92-1.15-.67-1-.14h-2.06l-1.2-1-.52-1.64,0-1.94.39-1.35.07-.46-.07-.39-.31-.75,0-.39.27-.45.42-.5.16-.48-.54-.33-.46-.19-1-.62-.28-.12-1,.26-.35-.07-.65-.38-1.29-1.15-.52-.36-1.86-.87-.52-.09-1.35,0-1.36-.58-.17,0-.33-.09-.28,0-.7.35-.22-.14-.46-.46-.17-.11-1-.17-.67.11-.37.56-.11,1.56-.14.77h0l0,.46-.08.49-.84.77-.3.48-.29,1-.36.9-.57.8-2.29,2-.44.65-.46,1.07-.67,1.06-.74.16-.89-.19-1.1,0-.51.54-.12.83-.33.71-1.12.16-1-.48-2.86-2.87-.51-.36L226,353l-.12,0-.12-.63-.49-.2-2.17-1.44-.17-.19-.17-.19-2.72.68-1,.09-2.11-.17-1.38.19h-.46l-1.14-.46-.22-.87-.06-1L213,348l-.3-.1-.32-.1-.38.23-.4.36-.6.31h-.91l-.4.06-1.86,3.56-.66.92-.68.44-1.85.42-.52.35L204,355l-.11.51-.32.39-.41.12-.42,0-.45-.08-.42,0-1,.24-.65.46-1.72,2.25-.83.79-1,.59-1,.11-1.07-.33-.38-.42-.14-.63-.39-1-1.52-1.09-1.88.08-2,.38-1.75-.23-.86-.6-.82-.84-1.25-1.57-.19-.87-.28-.36-.37,0-.36,0L182,353l-.74.77-.45,0-1.37-1.94-.22-.43-.14-.34-.06-.38,0-.47h0l.14-1,.22-.76h0l-.15-.49-2.3-.33-.49.06-.32-.06-.44-.49-.24-.08-.4.22-.19.13.08.06,0,.11,0,.22-.11.19h-.27l-.76-.32-.26,0-1.28.19-.35,0-.51-.3-.82-.87-.46-.38-.35-.11-.44-.09-.65-.14h-.2l-.32-.73-.2-1.06-.1-1.84h0l.37-2.61-.16-1-.17-.41-.3-.51-.38-.46-.41-.24-.41,0-.87.24h-.33l-.58-.46-.29-.74-.35-1.85-.58-1.06-.79-.5-3.95-.43-.36-.13-.54-.19-.81-.66-.25-.44-.17-1-.17-.41-.38-.44-1.4-1.06-.3-.13-.3-.17-.27-.19-.25-.24h0l.3-2-.08-.58-.46-.57-.65-.47-.65-.47-.73-1.75-1.22-1-2.56-1.72-.92-1.13-.74-1.32-1.19-2.81-.19-.68-.23-2.2-.36-1.14-.1-.55.1-.69,1.82-4.89-.1-.42.11-.79-.18-.38-.43-.3-.33,0-.23.15-.16.06-.17,0-.21.11-.23,0-.27-.43,0-.3.2-.65.07-.78.11-.28h0l0-.26-.77-.52-.22-.19-.1-.27,0-.39-.14-.7-.37-.7-.53-.58-.63-.32-.9-.28-.22-.33,0-.49-.32-.74-.42-.29-1.88-.71-.41,0-.81.27-.42,0-.28-.21-.35-.67-.82-.65-.53-1.27-.49-.5L131,290l-.93,0-.57-.77-.43-1-.55-.11-.75.27-1,.08-1-.47-.36-.81-.25-2-.47-.59-.81-.5-3.19-1.25-3.17.14-1.44-.18-2.63-.91-.7-.55-.44-.81-.36-1-.49-.76-.81-.24-1.8,1.25-.71.21-.08-.47-.07-.48h0l.36-.87.72-.76.88-.63.4-.23.41-.23.74-.61.21-.41.22-.41h0l0-.85-.58-.71-.73-.18-.65,0-.43-.27,0-1.08-.14-1.16-.71-.5-1.87-.4-.27-.19-.57-.36-1.07-1.4-.74-.73-.87-.49-.68-.29-.49-.43-.3-.91h0l.1-.81.25-.84-.06-.67-.85-.28h0l.3-.52.42-.3.44-.24.4-.33.86-1.8.71-.94.71-1,.73-1.36.35-.44h0L106,254l-2.15-1.23-2.65-1L99.66,251l-.76-.79L97.09,249l-1.39-1.74-.71-.32-.81-.22-1-.62-.46-.54-.16-.48-.07-.51-.19-.57,0-.28.09-.26,0-.26-.18-.17h-.27l-.28.08-.28,0-.24-.13-.42-1-.16-2.33-.27-1-2-.18-.52-.14-.12-.28,0-.33-.25-.32-.46-.19-.91-.13-.44-.12-1.42-.79-.21-.42-.09-.84-.19-.36-.76-.35-2-.19-.68-.22-.39-.73,0-.6-.24-.37-1.12,0-.49-.12-.71-.71-.45-.18h-.87l-.36-.1-1.07-.86-.84-.34L70.84,229l-.71-.38-2-1.83-.67-.41-.74-.13-.85.28L64.69,226,63,224.71l-2.51-1.23-.6-.43-.47-.67-.25-.65-.29-1.28-.34-.65-.3-.22-.74-.22-.35-.21-.27-.3-.42-.71-.29-.31-.6-.41L52.84,216l-.95-2.24-.21-.73,0-.57.95-.91,3-1,1-.87.21-.79-.14-.67-.26-.61-.17-.68.17-1.93,0-.65-.25-.76-.66-1.2L55,201l-.43-.7-.59-.57-1.12-.36-.28-.25-.22-.27-.32-.2L51,198.47h-.63l-1.39.32-.62,0-1.36-.5-1.34-1-2.15-2.4-.38-.23-.36-.25-.3-.28-.23-.33-.1-.81-.91-1-.1-1.6-.44-.71-3.84-3.54-1.44-.65-2.59-.3-1.42-.79-.9-.1-.87,0-2.52-.46-3.14.49-1.42,0-1.41-.87-.44-.12-.32-.18-.25-.29-.17-.41-1.06-1-1.55.16-2.89,1-.24-.13-.74-.59-.33-.17-.32-.06h-.65l-1.07-.11-1.55-.36-.71-.27-1.2-.65-1.2-.92-1-1.12L5,176.93l.16-1.47.54-1.53,2.52-4.2.44-.49,1.81-1.2.3-.43-.22-.55-1.21-1L9,165.47l.17-.65.82-1.18.1-.65-.8-.43-1.66,0-.46.06.21-.28.09-.65.27-.36,2.58-2,1.36-.63,4.89-3.08,1-.22,4.06-.43,2.2-.72.45-.26.25-.3V149l0-.3.27-.68,4.06-6.86.17-.44.05-.24.85-8.59.32-.82.35-.52L32,129.35l2.75-3.08.32-1,.09-.54-.08-12,.16-.93.16-.29.18-.17.16,0,.43,0,.49-.08L37,111l.4-.22,1.53-1.28,1.55-.93.59-.66,1.23-1.66.6-.63.38-.51.4-.82.25-.79L45.08,101l.49-1.33,0-.25,0-.28,0-.26-.13-.47-.38-.85L45,97.37l-.09-.49,0-.38.12-.49,2.24-4.82.44-.55.31-.28.28-.11.7-.21.66-.27.47-.09,1.14.09.52-.07,1.07-.43h.27l.52.06.3,0,.4-.16.31-.08.32,0,.54.09.23.08.46.2.26.08.25.05h.28l.24-.07.42-.16.25,0,.49.06h.25l.25,0,.82-.38.24-.08.52-.06h.28l.54,0,.46-.15.42-.2.66-.22.5-.09L64,88l1.8.06.51-.1.57-.16.14,0,3.3-1.17,1.93-.48.26,0,1.44,0,1-.17.72-.19.25,0,1.8.08.36,0,.4-.11.93-.46,2-.52.49,0,.16.12L84,87.14l.24.38.08.21.06.25.27,7,.08.25.13.19.28.33.35.28L87.1,97l.68.3,1.21.34.13.07.29.22.16.16.27.34,2.68,4.39.52.66.65.68,3.45,1.31L114,125.24l2,1.28,1.11.51,2.59.22.47,0,17.29-5.87,11.58-.27,2.05.36,6.4,0,3.64.46.25,0,.93-.25.26,0,5.73.84,4.43-.22.73-.14.47-.17,4.56,9.5,2.15,2.4,35.76.32-.55-1.12-.19-1.59.06-1.93.92-1.72,2.89-2.87,3.39-2.6.9-.73,5.5-2.91,5.37-2L245,114.36l3.78-3.59,2.09-3.31.06-6.49,1.37-1.06,2.47-1.5,11.93-5.8,2-1.23,21.11,13.49,11.85,10.65.71.52.62.21.63-.38.52-.49.87-.32.57-.14,5.08-.14,9.59-.52L323.4,113l19.25-19.06,4.89-6.08,1.25-1.23,2.79-4.35,2.94-7.44.58-.85,21.1-17.89.74-1.42.21-1.12-3.2-6-.67-3.07-.15-4.72.63-7.33-.22-4.65-.08-.54-.22-.71-.12-.27L361.35,13l29.74-.13.07-1.11,0-.57-.08-.54-.57-1.58L390.14,7l0-.6,0-.57.17-1.09V4.13l0-.28-.07-.27,0-.24.12-.19,21.38.27-.29,3.74-2.59,8.79,0,5.28-.62,6-.14.49L407.61,29l-.51.74-.59.71-.16.27-.2.45,0,.66,4.44,33.62-.17.84-.16.55L409.06,69l-.3.7-.06.52.47.36L419,74.18l.47.22.38.3L423.42,79l19.38,15.91.68.79,2,5,.24.75.06,1.2,0,.93-.51,3,.17,1.34.33.91.27,1v.32l0,.27-.14.47" transform="translate(-5 -3.14)" style="fill:#fff"/></g><g style="opacity:0.25"><path d="M495.82,365.94l-1.55,1.87V371h-1.65V359.6h1.65v6.24l4.85-6.24h1.94l-4.24,5.12,4.46,6.27h-1.86Z" transform="translate(-5 -3.14)" style="fill:#fff"/><path d="M507.83,368.33h1.6c0,1.06-.77,2.88-3.81,2.88s-3.87-1.63-3.87-4.48,1-4.56,3.87-4.56c2.72,0,3.87,1.55,3.87,4.74h-6.13c0,2,.53,3.07,2.26,3.07S507.82,368.9,507.83,368.33Zm-4.42-2.59h4.47c-.19-1.55-.85-2.35-2.26-2.35S503.58,364.26,503.42,365.73Z" transform="translate(-5 -3.14)" style="fill:#fff"/><path d="M518.92,365.86l0,5.14h-1.6l0-5c0-1.47-.34-2.4-1.76-2.4a2.76,2.76,0,0,0-2.42,1.68V371h-1.6v-6.31l-.13-2.32h1.34l.24,1.46a3.4,3.4,0,0,1,2.86-1.65C518,362.18,518.92,363.09,518.92,365.86Z" transform="translate(-5 -3.14)" style="fill:#fff"/><path d="M527.93,362.37l-4.34,12.13h-1.46l1.2-3.51h-.45l-3-8.63h1.76l2.27,7,2.4-7Z" transform="translate(-5 -3.14)" style="fill:#fff"/><path d="M534.63,371l-.19-1.09a3.38,3.38,0,0,1-3,1.28c-2.15,0-3-.86-3-2.59,0-2.74,2.46-2.66,5.75-2.64,0-1.82-.18-2.53-1.87-2.53s-2,1-2,1.58h-1.44c0-1,.35-2.79,3.42-2.79,3.6,0,3.54,1.84,3.54,4.51v2L536,371Zm-.4-2.5V367c-2.64,0-4.22,0-4.22,1.62,0,.85.45,1.44,1.78,1.44A2.37,2.37,0,0,0,534.23,368.49Z" transform="translate(-5 -3.14)" style="fill:#fff"/></g><g style="opacity:0.25"><path d="M340.84,444.53V438.6h1.65v5.92c0,3.15.66,4.31,2.72,4.31s2.72-1.15,2.72-4.31V438.6h1.68v5.92c0,3.94-1.1,5.76-4.39,5.76S340.84,448.46,340.84,444.53Z" transform="translate(-5 -3.14)" style="fill:#fff"/><path d="M359.6,441.37l-.11,2.4V450c0,1.73,0,3.83-4,3.83-3.68,0-3.44-3-3.44-3h1.49c0,.13-.11,1.75,2.06,1.75s2.24-1.15,2.24-2.58v-1a3.31,3.31,0,0,1-2.79,1.15c-2.5,0-3.44-1.66-3.44-4.45s.94-4.5,3.44-4.5a3.56,3.56,0,0,1,2.93,1.54l.22-1.38ZM357.88,447v-2.83a2.8,2.8,0,0,0-2.48-1.68c-1.46,0-2.11,1.14-2.11,3.2s.66,3.15,2.11,3.15A2.39,2.39,0,0,0,357.88,447Z" transform="translate(-5 -3.14)" style="fill:#fff"/><path d="M367.53,450l-.19-1.09a3.38,3.38,0,0,1-3,1.28c-2.15,0-3-.86-3-2.59,0-2.74,2.46-2.66,5.75-2.64,0-1.82-.18-2.53-1.87-2.53s-2,1-2,1.58h-1.44c0-1,.35-2.79,3.43-2.79,3.6,0,3.54,1.84,3.54,4.51v2l.14,2.22Zm-.4-2.5V446c-2.64,0-4.23,0-4.23,1.62,0,.85.45,1.44,1.78,1.44A2.37,2.37,0,0,0,367.13,447.49Z" transform="translate(-5 -3.14)" style="fill:#fff"/><path d="M378.56,444.86l0,5.14h-1.6l0-5c0-1.47-.34-2.4-1.76-2.4a2.76,2.76,0,0,0-2.42,1.68V450h-1.6v-6.31l-.13-2.32h1.34l.24,1.46a3.4,3.4,0,0,1,2.86-1.65C377.64,441.18,378.56,442.09,378.56,444.86Z" transform="translate(-5 -3.14)" style="fill:#fff"/><path d="M387.18,450l-.21-1.22a3.22,3.22,0,0,1-2.94,1.38c-2.5,0-3.44-1.66-3.44-4.45s.94-4.5,3.44-4.5a3.63,3.63,0,0,1,2.77,1.2v-4.58h1.6v9.83l.13,2.34Zm-.38-2.91v-2.9a2.79,2.79,0,0,0-2.47-1.68c-1.46,0-2.11,1.14-2.11,3.2s.66,3.15,2.11,3.15A2.36,2.36,0,0,0,386.8,447.09Z" transform="translate(-5 -3.14)" style="fill:#fff"/><path d="M396.64,450l-.19-1.09a3.38,3.38,0,0,1-3,1.28c-2.15,0-3-.86-3-2.59,0-2.74,2.46-2.66,5.75-2.64,0-1.82-.18-2.53-1.87-2.53s-2,1-2,1.58h-1.44c0-1,.35-2.79,3.43-2.79,3.6,0,3.54,1.84,3.54,4.51v2L398,450Zm-.4-2.5V446c-2.64,0-4.23,0-4.23,1.62,0,.85.45,1.44,1.78,1.44A2.37,2.37,0,0,0,396.24,447.49Z" transform="translate(-5 -3.14)" style="fill:#fff"/></g><g style="opacity:0.25"><path d="M495.32,90.54V92h-7.55V80.6h7.46v1.46h-5.81v3.33h5v1.42h-5v3.73Z" transform="translate(-5 -3.14)" style="fill:#fff"/><path d="M501.19,90.75V92h-1.1c-2.46,0-2.71-1.55-2.71-3.38v-4h-1.1v-1.3h1.1V81l1.6-.3v2.67h2.11v1.3H499v4c0,1.47.29,2.08,1.31,2.08Z" transform="translate(-5 -3.14)" style="fill:#fff"/><path d="M510.28,86.86l0,5.14h-1.6l0-5c0-1.47-.34-2.4-1.75-2.4a2.85,2.85,0,0,0-2.5,1.84V92h-1.6V79.83h1.6V84.7a3.39,3.39,0,0,1,2.8-1.52C509.36,83.18,510.28,84.09,510.28,86.86Z" transform="translate(-5 -3.14)" style="fill:#fff"/><path d="M512.58,83.37h1.6V92h-1.6Zm0-3.54h1.6V82h-1.6Z" transform="translate(-5 -3.14)" style="fill:#fff"/><path d="M516.18,87.71c0-2.71.93-4.55,4-4.55s4,1.84,4,4.55-.94,4.5-4,4.5S516.18,90.42,516.18,87.71Zm6.27,0c0-2.13-.56-3.25-2.34-3.25s-2.32,1.12-2.32,3.25.56,3.2,2.32,3.2S522.45,89.85,522.45,87.71Z" transform="translate(-5 -3.14)" style="fill:#fff"/><path d="M534,87.71c0,2.79-1,4.45-3.46,4.45a3.34,3.34,0,0,1-2.75-1.1v4.79h-1.6V85.74l-.13-2.37h1.35l.22,1.39a3.58,3.58,0,0,1,2.91-1.55C533.06,83.21,534,84.91,534,87.71Zm-1.63,0c0-2.06-.66-3.2-2.13-3.2a2.78,2.78,0,0,0-2.45,1.65V89.1a2.34,2.34,0,0,0,2.45,1.76C531.73,90.86,532.39,89.77,532.39,87.71Z" transform="translate(-5 -3.14)" style="fill:#fff"/><path d="M536,83.37h1.6V92H536Zm0-3.54h1.6V82H536Z" transform="translate(-5 -3.14)" style="fill:#fff"/><path d="M545.63,92l-.19-1.09a3.38,3.38,0,0,1-3,1.28c-2.14,0-3-.86-3-2.59,0-2.74,2.46-2.66,5.75-2.64,0-1.82-.18-2.53-1.87-2.53s-2,1-2,1.58h-1.44c0-1,.35-2.79,3.42-2.79,3.6,0,3.54,1.84,3.54,4.51v2L547,92Zm-.4-2.5V88c-2.64,0-4.23,0-4.23,1.62,0,.85.45,1.44,1.78,1.44A2.37,2.37,0,0,0,545.23,89.49Z" transform="translate(-5 -3.14)" style="fill:#fff"/></g><g style="opacity:0.25"><path d="M181.46,59.49c0,1.47,1,2.32,2.72,2.34,2,0,2.74-.75,2.74-1.76,0-3.17-6.77-.86-6.77-5.65,0-1.9,1.18-3.14,4-3.12s4.18,1.31,4.18,3.47h-1.58c0-1-.67-2-2.55-2s-2.4.86-2.4,1.71c0,3.09,6.8.91,6.8,5.54,0,2.15-1.38,3.3-4.4,3.28-2.72,0-4.37-1.14-4.37-3.79Z" transform="translate(-5 -3.14)" style="fill:#fff"/><path d="M196.52,63l-.26-1.58a3.38,3.38,0,0,1-2.91,1.79c-2,0-3-.93-3-3.59l0-5.25h1.58l0,5c0,1.47.3,2.42,1.73,2.42a2.85,2.85,0,0,0,2.5-1.92V54.37h1.6v6.24l.14,2.38Z" transform="translate(-5 -3.14)" style="fill:#fff"/><path d="M206.32,63l-.21-1.22a3.22,3.22,0,0,1-2.94,1.38c-2.5,0-3.44-1.66-3.44-4.45s.94-4.5,3.44-4.5a3.63,3.63,0,0,1,2.77,1.2V50.83h1.6v9.83l.13,2.34Zm-.38-2.91v-2.9a2.79,2.79,0,0,0-2.47-1.68c-1.46,0-2.11,1.14-2.11,3.2s.66,3.15,2.11,3.15A2.36,2.36,0,0,0,205.94,60.09Z" transform="translate(-5 -3.14)" style="fill:#fff"/><path d="M215.78,63l-.19-1.09a3.38,3.38,0,0,1-3,1.28c-2.15,0-3-.86-3-2.59,0-2.74,2.46-2.66,5.75-2.64,0-1.82-.18-2.53-1.87-2.53s-2,1-2,1.58H210c0-1,.35-2.79,3.43-2.79,3.6,0,3.54,1.84,3.54,4.51v2l.14,2.22Zm-.4-2.5V59c-2.64,0-4.23,0-4.23,1.62,0,.85.45,1.44,1.78,1.44A2.37,2.37,0,0,0,215.38,60.49Z" transform="translate(-5 -3.14)" style="fill:#fff"/><path d="M226.8,57.86l0,5.14h-1.6l0-5c0-1.47-.34-2.4-1.76-2.4A2.76,2.76,0,0,0,221,57.29V63h-1.6V56.69l-.13-2.32h1.34l.24,1.46a3.4,3.4,0,0,1,2.86-1.65C225.89,54.18,226.8,55.09,226.8,57.86Z" transform="translate(-5 -3.14)" style="fill:#fff"/></g><g style="opacity:0.25"><path d="M10.06,258.32c0-4,1.25-6,4.66-6,2.82,0,4.24,1.41,4.29,4.27H17.39c-.08-2-.94-2.82-2.67-2.82-2.21,0-3,1.34-3,4.55s.78,4.51,3,4.51c1.66,0,2.56-.77,2.64-2.75H19c-.06,2.87-1.47,4.21-4.26,4.21C11.31,264.29,10.06,262.26,10.06,258.32Z" transform="translate(-5 -3.14)" style="fill:#fff"/><path d="M27.4,261.26H22.54l-1,2.74H19.91l4.34-11.4h1.58L30.14,264H28.4Zm-.51-1.46L25,254.49l-1.9,5.31Z" transform="translate(-5 -3.14)" style="fill:#fff"/><path d="M38.6,264l-2.16-4.23c-.27,0-.56,0-.86,0H33.27V264H31.62V252.57h4c3.49,0,4.47.91,4.47,3.62,0,1.92-.5,2.91-2,3.34l2.4,4.47Zm-3-5.67c1.68,0,2.82-.13,2.82-2.14S37.26,254,35.58,254H33.27v4.29Z" transform="translate(-5 -3.14)" style="fill:#fff"/></g><g style="opacity:0.25"><path d="M126.89,397.55c4.59,0,5.68,1.75,5.68,5.76s-1.09,5.73-5.68,5.73h-3.06V397.55Zm.06,10c3.14,0,3.94-.87,3.94-4.27S130.09,399,127,399h-1.47v8.58Z" transform="translate(-5 -3.14)" style="fill:#fff"/><path d="M141.92,409l-2.16-4.23c-.27,0-.56,0-.86,0h-2.31V409h-1.65V397.57h4c3.49,0,4.47.91,4.47,3.62,0,1.92-.5,2.91-2,3.34l2.4,4.47Zm-3-5.67c1.68,0,2.82-.13,2.82-2.14s-1.14-2.16-2.82-2.16h-2.31v4.29Z" transform="translate(-5 -3.14)" style="fill:#fff"/><path d="M145.18,403.32c0-4,1.25-6,4.66-6,2.82,0,4.24,1.41,4.29,4.27h-1.62c-.08-2-.94-2.82-2.67-2.82-2.21,0-3,1.34-3,4.55s.78,4.51,3,4.51c1.66,0,2.56-.77,2.64-2.75h1.62c-.06,2.87-1.47,4.21-4.26,4.21C146.42,409.29,145.18,407.26,145.18,403.32Z" transform="translate(-5 -3.14)" style="fill:#fff"/></g><path d="M343.52,327.75l1.11,5.81a.4.4,0,0,1-.17.38.39.39,0,0,1-.21.06.36.36,0,0,1-.2-.06l-5-3.25-5,3.25a.39.39,0,0,1-.41,0,.4.4,0,0,1-.17-.38l1.11-5.81-4.38-4.36A.43.43,0,0,1,330,323a.38.38,0,0,1,.36-.23h5.75l2.52-6.5a.37.37,0,0,1,.7,0l2.52,6.5h5.75a.38.38,0,0,1,.36.23.43.43,0,0,1-.09.41Z" transform="translate(-5 -3.14)" style="fill:#0f381b"/></svg>